<?xml version="1.0" standalone="no"?><!DOCTYPE svg PUBLIC "-//W3C//DTD SVG 1.1//EN" "http://www.w3.org/Graphics/SVG/1.1/DTD/svg11.dtd"><svg class="icon" width="48px" height="48.00px" viewBox="0 0 1024 1024" version="1.1" xmlns="http://www.w3.org/2000/svg"><path d="M896 128a64 64 0 0 1 64 64v512a64 64 0 0 1-64 64H128a64 64 0 0 1-64-64V192a64 64 0 0 1 64-64h768z m0 64H128v512h768V192zM312 353.984c4.416 0 8 3.584 8 8v270.016a8 8 0 0 1-8 8h-48A8 8 0 0 1 256 632V361.984c0-4.416 3.584-8 8-8h48z m299.008 51.008c4.416 0 8 3.584 8 8v219.008a8 8 0 0 1-8 8h-48a8 8 0 0 1-8-8V412.992c0-4.416 3.584-8 8-8h48z m148.992-115.008c4.416 0 8 3.584 8 8v334.016a8 8 0 0 1-8 8h-48A8 8 0 0 1 704 632V297.984c0-4.416 3.584-8 8-8h48zM460.992 256c4.48 0 8 3.584 8 8v368a8 8 0 0 1-8 8h-48a8 8 0 0 1-8-8v-368c0-4.416 3.584-8 8-8h48zM832 840v48a8 8 0 0 1-8 8h-624A8 8 0 0 1 192 888v-48c0-4.416 3.584-8 8-8h624c4.416 0 8 3.584 8 8z" /></svg>