<?xml version="1.0" standalone="no"?><!DOCTYPE svg PUBLIC "-//W3C//DTD SVG 1.1//EN" "http://www.w3.org/Graphics/SVG/1.1/DTD/svg11.dtd"><svg class="icon" width="48px" height="48.00px" viewBox="0 0 1024 1024" version="1.1" xmlns="http://www.w3.org/2000/svg"><path d="M187.712 648.128l319.168-317.44a8 8 0 0 1 11.264 0l318.208 317.44a8 8 0 0 1 0.192 11.136l-0.192 0.192-33.92 33.92a8 8 0 0 1-11.328 0L518.08 420.8a8 8 0 0 0-11.264 0l-273.984 272.512a8 8 0 0 1-11.328 0l-33.856-33.92a8 8 0 0 1-0.192-11.136l0.256-0.192z" /></svg>