<?xml version="1.0" standalone="no"?><!DOCTYPE svg PUBLIC "-//W3C//DTD SVG 1.1//EN" "http://www.w3.org/Graphics/SVG/1.1/DTD/svg11.dtd"><svg class="icon" width="48px" height="48.00px" viewBox="0 0 1024 1024" version="1.1" xmlns="http://www.w3.org/2000/svg"><path d="M648.128 836.352L330.624 517.12a8 8 0 0 1 0-11.264l317.504-318.208a8 8 0 0 1 11.136-0.192l0.192 0.192 33.92 33.92a8 8 0 0 1 0 11.328L420.8 505.92a8 8 0 0 0 0 11.264l272.512 273.984a8 8 0 0 1 0 11.328l-33.92 33.856a8 8 0 0 1-11.136 0.192l-0.192-0.192z" /></svg>