<?xml version="1.0" standalone="no"?><!DOCTYPE svg PUBLIC "-//W3C//DTD SVG 1.1//EN" "http://www.w3.org/Graphics/SVG/1.1/DTD/svg11.dtd"><svg class="icon" width="48px" height="48.00px" viewBox="0 0 1024 1024" version="1.1" xmlns="http://www.w3.org/2000/svg"><path d="M536.512 89.472c4.416 0 8 3.584 8 8v64.32A288 288 0 0 1 800 448v321.408l87.552 0.064c4.416 0 8 3.584 8 8v48a8 8 0 0 1-8.064 8l-208.448-0.128a188.032 188.032 0 0 1-334.208-0.192l-209.856-0.128a8 8 0 0 1-8-8v-48c0.064-4.48 3.648-8 8.064-8H224V448a288 288 0 0 1 256.512-286.272V97.472c0-4.416 3.584-8 8-8h48z m-113.664 743.68a123.968 123.968 0 0 0 178.24 0.128l-178.24-0.064zM512 224A224 224 0 0 0 288 448v321.024h448V448a224 224 0 0 0-220.288-224H512z" /></svg>