<?xml version="1.0" standalone="no"?><!DOCTYPE svg PUBLIC "-//W3C//DTD SVG 1.1//EN" "http://www.w3.org/Graphics/SVG/1.1/DTD/svg11.dtd"><svg class="icon" width="48px" height="48.00px" viewBox="0 0 1024 1024" version="1.1" xmlns="http://www.w3.org/2000/svg"><path d="M128 864h768a64 64 0 0 1-64 64H192a64 64 0 0 1-64-62.912V864z m387.008-640a281.984 281.984 0 0 1 281.984 281.984V736a64 64 0 0 1-64 64H297.024a64 64 0 0 1-64-64V505.984A281.984 281.984 0 0 1 515.008 224z m0 64A217.984 217.984 0 0 0 296.96 505.984V736h435.968V505.984A217.984 217.984 0 0 0 515.008 288z m21.504 320.32c4.416 0 8 3.52 8.064 7.936l0.384 47.488a8 8 0 0 1-7.936 8.064l-48 0.384a8 8 0 0 1-8.064-7.936l-0.384-47.488c0-4.48 3.52-8.064 7.936-8.064l48-0.384zM536.96 385.92c4.416 0 8 3.584 8 8v179.008a8 8 0 0 1-8 8h-48a8 8 0 0 1-8-8V393.984c0-4.416 3.584-8 8-8h48z m274.432-175.872l33.92 33.92a8 8 0 0 1 0 11.328l-59.392 59.392a8 8 0 0 1-11.264 0l-33.92-33.92a8 8 0 0 1 0-11.328l59.328-59.392a8 8 0 0 1 11.328 0z m-587.584 0l59.392 59.392a8 8 0 0 1 0 11.328l-33.92 33.92a8 8 0 0 1-11.328 0L178.56 255.36a8 8 0 0 1 0-11.328l33.92-33.92a8 8 0 0 1 11.328 0zM164.48 519.488v48a8 8 0 0 1-8 8H72.512a8 8 0 0 1-8-8v-48c0-4.416 3.584-8 8-8h83.968c4.48 0 8 3.584 8 8z m796.992 0v48a8 8 0 0 1-8 8h-83.968a8 8 0 0 1-8-8v-48c0-4.416 3.584-8 8-8h83.968c4.48 0 8 3.584 8 8zM544 104v84.032a8 8 0 0 1-8 7.936h-48a8 8 0 0 1-8-7.936V104c0-4.416 3.584-8 8-8h48c4.416 0 8 3.584 8 8z" /></svg>