<?xml version="1.0" standalone="no"?><!DOCTYPE svg PUBLIC "-//W3C//DTD SVG 1.1//EN" "http://www.w3.org/Graphics/SVG/1.1/DTD/svg11.dtd"><svg class="icon" width="48px" height="48.00px" viewBox="0 0 1024 1024" version="1.1" xmlns="http://www.w3.org/2000/svg"><path d="M394.24 56.888889H139.662222C93.866667 56.888889 56.888889 93.923556 56.888889 139.662222V394.24c0 45.681778 37.034667 82.773333 82.773333 82.773333H394.24c45.681778 0 82.773333-37.091556 82.773333-82.773333V139.662222C477.013333 93.866667 439.921778 56.888889 394.24 56.888889zM139.662222 394.24V139.662222H394.24V394.24H139.662222zM884.394667 56.888889H629.76c-45.681778 0-82.773333 37.034667-82.773333 82.773333V394.24c0 45.681778 37.091556 82.773333 82.773333 82.773333h254.634667c45.681778 0 82.716444-37.091556 82.716444-82.773333V139.662222C967.111111 93.866667 930.076444 56.888889 884.394667 56.888889zM629.76 394.24V139.662222h254.634667V394.24H629.76zM394.24 546.986667H139.662222C93.866667 546.986667 56.888889 584.078222 56.888889 629.76v254.634667C56.888889 930.076444 93.923556 967.111111 139.662222 967.111111H394.24c45.681778 0 82.773333-37.034667 82.773333-82.716444V629.76c0-45.681778-37.091556-82.773333-82.773333-82.773333z m-254.577778 337.351111V629.76H394.24v254.634667H139.662222zM884.394667 546.986667H629.76c-45.681778 0-82.773333 37.091556-82.773333 82.773333v254.634667c0 45.681778 37.091556 82.716444 82.773333 82.716444h254.634667c45.681778 0 82.716444-37.034667 82.716444-82.716444V629.76c0-45.681778-37.034667-82.773333-82.716444-82.773333z m-254.634667 337.351111V629.76h254.634667v254.634667H629.76z" /></svg>