<?xml version="1.0" standalone="no"?><!DOCTYPE svg PUBLIC "-//W3C//DTD SVG 1.1//EN" "http://www.w3.org/Graphics/SVG/1.1/DTD/svg11.dtd"><svg class="icon" width="48px" height="48.00px" viewBox="0 0 1024 1024" version="1.1" xmlns="http://www.w3.org/2000/svg"><path d="M371.648 112.064l125.44 78.4 51.008-65.28a40 40 0 0 1 56.128-6.848l273.472 213.632a39.936 39.936 0 0 1 9.6 10.88H896a64 64 0 0 1 64 64v448a64 64 0 0 1-64 64H128a64 64 0 0 1-64-64v-448a64 64 0 0 1 64-64h52.288L316.544 124.8a40 40 0 0 1 55.104-12.736zM896 406.848H128v448h768v-448z m-176 64a112 112 0 1 1 0 224 112 112 0 0 1 0-224z m0 64a48 48 0 1 0 0 96 48 48 0 0 0 0-96zM583.744 183.552l-124.48 159.36h328.384l-203.904-159.36z m-225.664-4.48l-102.336 163.84h122.304l79.424-101.76-99.392-62.08z" /></svg>