<?xml version="1.0" standalone="no"?><!DOCTYPE svg PUBLIC "-//W3C//DTD SVG 1.1//EN" "http://www.w3.org/Graphics/SVG/1.1/DTD/svg11.dtd"><svg class="icon" width="48px" height="48.00px" viewBox="0 0 1024 1024" version="1.1" xmlns="http://www.w3.org/2000/svg"><path d="M402.970947 517.766737a34.923789 34.923789 0 0 1-31.582315-49.25979l100.028631-225.28a34.492632 34.492632 0 0 1 45.756632-17.569684c17.408 7.922526 25.222737 28.564211 17.408 46.18779L456.488421 447.865263h146.593684c24.899368 0 41.660632 25.761684 31.797895 48.828632L534.689684 729.734737a34.492632 34.492632 0 0 1-45.541052 18.162526 35.031579 35.031579 0 0 1-18.000843-45.97221L550.265263 517.766737H402.970947zM116.412632 219.513263L475.567158 9.862737a72.111158 72.111158 0 0 1 72.704 0l359.31621 209.650526c21.989053 12.826947 35.570526 36.378947 35.516632 61.763369l-0.215579 414.288842c0 25.6-13.743158 49.205895-36.001684 61.978947l-359.154526 205.716211a72.111158 72.111158 0 0 1-71.68 0L116.951579 757.544421A71.518316 71.518316 0 0 1 80.842105 695.511579V281.276632c0-25.438316 13.473684-48.936421 35.570527-61.763369zM856.926316 289.414737L512 88.171789 167.073684 289.414737v397.743158L512 884.682105l344.710737-197.470316 0.215579-397.743157z" /></svg>