<?xml version="1.0" standalone="no"?><!DOCTYPE svg PUBLIC "-//W3C//DTD SVG 1.1//EN" "http://www.w3.org/Graphics/SVG/1.1/DTD/svg11.dtd"><svg class="icon" width="48px" height="48.00px" viewBox="0 0 1024 1024" version="1.1" xmlns="http://www.w3.org/2000/svg"><path d="M136 832h752c4.416 0 8 3.584 8 8v48a8 8 0 0 1-8 8H136A8 8 0 0 1 128 888v-48c0-4.416 3.584-8 8-8z m0-704h752c4.416 0 8 3.584 8 8v48a8 8 0 0 1-8 8H136A8 8 0 0 1 128 184v-48C128 131.584 131.584 128 136 128z m0 224h496c4.416 0 8 3.584 8 8v48a8 8 0 0 1-8 8h-496A8 8 0 0 1 128 408v-48c0-4.416 3.584-8 8-8z m0 256h496c4.416 0 8 3.584 8 8v48a8 8 0 0 1-8 8h-496A8 8 0 0 1 128 664v-48c0-4.416 3.584-8 8-8z m752.576-105.6l-171.52-139.776a8 8 0 0 0-13.056 6.208v285.824a8 8 0 0 0 13.184 6.144l171.52-146.048a8 8 0 0 0-0.128-12.288z" /></svg>