<?xml version="1.0" standalone="no"?><!DOCTYPE svg PUBLIC "-//W3C//DTD SVG 1.1//EN" "http://www.w3.org/Graphics/SVG/1.1/DTD/svg11.dtd"><svg class="icon" width="48px" height="48.00px" viewBox="0 0 1024 1024" version="1.1" xmlns="http://www.w3.org/2000/svg"><path d="M762.538667 550.456889V546.133333a34.133333 34.133333 0 0 1 68.380444 0v4.323556c12.515556 3.185778 24.462222 8.192 35.271111 14.563555l3.072-3.072a34.247111 34.247111 0 0 1 48.355556 48.355556l-3.072 3.015111c6.428444 10.808889 11.377778 22.698667 14.620444 35.271111h4.323556a34.133333 34.133333 0 1 1 0 68.266667h-4.323556c-3.185778 12.515556-8.192 24.291556-14.620444 35.157333l3.072 3.072a34.247111 34.247111 0 0 1-48.355556 48.241778l-3.072-3.015111c-10.979556 6.485333-22.869333 11.377778-35.271111 14.620444v4.266667a34.133333 34.133333 0 0 1-68.380444 0v-4.266667a135.964444 135.964444 0 0 1-35.271111-14.620444l-3.072 3.072a34.247111 34.247111 0 0 1-48.355556-48.298667l3.072-3.072a135.964444 135.964444 0 0 1-14.620444-35.214222H659.911111a34.133333 34.133333 0 1 1 0-68.266667h4.323556c3.185778-12.515556 8.192-24.348444 14.620444-35.271111l-3.072-3.015111a34.247111 34.247111 0 0 1 48.355556-48.241778l3.072 3.015111c10.979556-6.485333 22.869333-11.377778 35.271111-14.563555z m34.133333 200.476444a68.380444 68.380444 0 0 0 59.278222-102.4 68.437333 68.437333 0 0 0-127.601778 34.133334c0 37.717333 30.606222 68.266667 68.380445 68.266666zM513.422222 82.375111c23.438222 0 42.382222 18.488889 42.382222 41.358222a41.870222 41.870222 0 0 1-42.382222 41.358223c-205.368889 0-371.825778 161.109333-371.825778 359.651555a41.870222 41.870222 0 0 1-42.325333 41.358222A41.870222 41.870222 0 0 1 56.888889 524.743111c0-244.394667 204.515556-442.368 456.533333-442.368z m453.404445 389.745778a41.585778 41.585778 0 0 1-37.034667 46.023111 42.154667 42.154667 0 0 1-47.104-36.181333c-15.36-125.269333-98.019556-233.301333-215.950222-285.013334a40.96 40.96 0 0 1-21.333334-54.613333 42.780444 42.780444 0 0 1 56.035556-20.878222c144.839111 63.488 246.499556 196.266667 265.386667 350.663111zM126.691556 674.417778a40.903111 40.903111 0 0 0-17.635556 55.921778C187.505778 874.723556 342.072889 967.111111 513.479111 967.111111c68.835556 0 135.623111-14.791111 196.494222-42.951111a40.96 40.96 0 0 0 20.138667-55.125333 42.780444 42.780444 0 0 0-56.433778-19.683556 380.643556 380.643556 0 0 1-160.199111 34.986667c-139.776 0-265.671111-75.207111-329.443555-192.739556a42.894222 42.894222 0 0 0-57.287112-17.180444zM444.416 139.662222a84.707556 82.773333 0 1 0 169.415111 0 84.707556 82.773333 0 1 0-169.415111 0ZM64.739556 707.754667a84.707556 82.773333 0 1 0 169.415111 0 84.707556 82.773333 0 1 0-169.415111 0Z" /></svg>