<?xml version="1.0" standalone="no"?><!DOCTYPE svg PUBLIC "-//W3C//DTD SVG 1.1//EN" "http://www.w3.org/Graphics/SVG/1.1/DTD/svg11.dtd"><svg t="1757326001824" class="icon" viewBox="0 0 1024 1024" version="1.1" xmlns="http://www.w3.org/2000/svg" p-id="1116" xmlns:xlink="http://www.w3.org/1999/xlink" width="200" height="200"><path d="M614.67306667 944.35555556c-18.87573333 0-34.13333333-15.2576-34.13333334-34.13333333V398.22222223a34.03946667 34.03946667 0 0 1 8.8064-22.86933333l222.72-250.12906667h-600.40533333L434.82453333 375.52355556a34.16533333 34.16533333 0 0 1 8.63573334 22.7328V706.27555556l54.23786666 43.89546667c14.67733333 11.8784 16.93013333 33.34826667 5.05173334 47.99146667s-33.34826667 16.896-47.99146667 5.05173333l-66.90133333-54.13546667c-8.02133333-6.4512-12.66346667-16.24746667-12.66346667-26.5216V411.22702223L110.01173333 113.78915556c-8.94293333-10.0352-11.1616-24.40533333-5.66613333-36.69333333 5.49546667-12.25386667 17.7152-20.1728 31.16373333-20.1728h753.42506667c13.5168 0 25.73653333 7.95306667 31.19786667 20.2752s3.1744 26.7264-5.87093334 36.72746667L648.8064 411.32942223V910.22222223c0 18.87573333-15.2576 34.13333333-34.13333333 34.13333333z" fill="#333333" p-id="1117"></path></svg>