<?xml version="1.0" standalone="no"?><!DOCTYPE svg PUBLIC "-//W3C//DTD SVG 1.1//EN" "http://www.w3.org/Graphics/SVG/1.1/DTD/svg11.dtd"><svg class="icon" width="48px" height="48.00px" viewBox="0 0 1024 1024" version="1.1" xmlns="http://www.w3.org/2000/svg"><path d="M512 64a448 448 0 1 1 0 896A448 448 0 0 1 512 64z m0 64a384 384 0 1 0 0 768A384 384 0 0 0 512 128z m0 560a32 32 0 1 1 0 64 32 32 0 0 1 0-64z m0-416c41.984 0 81.6 14.4 111.616 40.704 31.168 27.264 48.384 64 48.256 103.296 0 57.216-37.312 108.8-95.36 131.84l-1.728 0.64a48.32 48.32 0 0 0-30.912 44.8v22.72a8 8 0 0 1-8 8h-48a8 8 0 0 1-8-8v-21.504a111.744 111.744 0 0 1 72-105.792c34.112-13.12 56.128-41.6 56.128-72.704 0-44.16-43.072-80-96-80s-96 35.84-96 80v7.616a8 8 0 0 1-8 8h-48a8 8 0 0 1-8-8V416c0-39.296 17.216-76.032 48.384-103.296A169.088 169.088 0 0 1 512 272z" /></svg>