<?xml version="1.0" standalone="no"?><!DOCTYPE svg PUBLIC "-//W3C//DTD SVG 1.1//EN" "http://www.w3.org/Graphics/SVG/1.1/DTD/svg11.dtd"><svg t="1757325871048" class="icon" viewBox="0 0 1024 1024" version="1.1" xmlns="http://www.w3.org/2000/svg" p-id="1950" xmlns:xlink="http://www.w3.org/1999/xlink" width="200" height="200"><path d="M536.64615722 655.61328125L253.11100097 386.84375c-5.9765625 3.07617188-11.33789063 7.11914063-15.90820311 12.04101563l-118.12500001 123.92578124-6.24023438-230.88867187c-0.79101563-27.7734375 21.62109375-51.24023438 49.39453125-51.94335938l209.09179689-5.625 49.04296874-51.85546875-259.54101562 7.03125C104.75162597 191.11132812 60.54264161 237.51757812 62.03678223 293.328125l7.55859375 281.25L74.34146973 747.37109375c1.49414063 55.81054688 48.1640625 99.75585938 104.23828125 98.26171875l182.37304688-4.921875 12.39257812-0.3515625 49.04296875-51.85546875L542.79850097 661.4140625l-6.15234375-5.80078125zM703.19889161 463.57226562c42.09960938 0 76.20117188-33.92578125 76.20117186-75.76171874s-34.18945313-75.76171875-76.20117187-75.76171875c-42.01171875 0-76.20117188 33.92578125-76.20117188 75.76171875s34.1015625 75.76171875 76.20117188 75.76171875z" fill="#333333" p-id="1951"></path><path d="M874.40982911 204.03125l-251.63085938-35.15625-57.12890625 42.97851563 301.72851563 42.09960937c27.68554688 3.8671875 47.02148438 29.44335938 43.33007812 57.12890625l-56.33789062 403.68164063-125.15625-164.79492188c-20.65429688-27.15820313-59.32617188-32.51953125-86.57226563-12.12890625l-45.61523437 34.27734375L664.52701661 661.4140625l-57.30468751 43.33007813-82.44140624 62.31445312-56.953125 42.890625 35.41992187 4.921875 280.54687499 39.11132813c53.96484375 7.734375 104.4140625-28.74023438 113.90625001-82.52929688 0.3515625-1.14257813 0.52734375-2.37304688 0.703125-3.60351563l62.75390625-449.91210937c7.64648438-55.10742188-31.11328125-106.171875-86.74804687-113.90625z" fill="#333333" p-id="1952"></path></svg>