<?xml version="1.0" standalone="no"?><!DOCTYPE svg PUBLIC "-//W3C//DTD SVG 1.1//EN" "http://www.w3.org/Graphics/SVG/1.1/DTD/svg11.dtd"><svg class="icon" width="48px" height="48.00px" viewBox="0 0 1024 1024" version="1.1" xmlns="http://www.w3.org/2000/svg"><path d="M640 128a64 64 0 0 1 64 64v128h128a64 64 0 0 1 64 64v448a64 64 0 0 1-64 64H192a64 64 0 0 1-64-64V384a64 64 0 0 1 64-64h128V192a64 64 0 0 1 64-64h256z m192 256H192v448h640V384zM536 448c4.416 0 8 3.584 8 8V576h152c4.416 0 8 3.584 8 8v48a8 8 0 0 1-8 8H544v120a8 8 0 0 1-8 8h-48a8 8 0 0 1-8-8V640H328A8 8 0 0 1 320 632v-48C320 579.584 323.584 576 328 576H480V456c0-4.416 3.584-8 8-8h48zM640 192H384v128h256V192z" /></svg>