<?xml version="1.0" standalone="no"?><!DOCTYPE svg PUBLIC "-//W3C//DTD SVG 1.1//EN" "http://www.w3.org/Graphics/SVG/1.1/DTD/svg11.dtd"><svg class="icon" width="48px" height="48.00px" viewBox="0 0 1024 1024" version="1.1" xmlns="http://www.w3.org/2000/svg"><path d="M824 832c4.416 0 8 3.584 8 8v48a8 8 0 0 1-8 8h-624A8 8 0 0 1 192 888v-48c0-4.416 3.584-8 8-8h624zM896 128a64 64 0 0 1 64 64v512a64 64 0 0 1-64 64H128a64 64 0 0 1-64-64V192a64 64 0 0 1 64-64h768z m0 64H128v512h768V192z m-295.04 63.232a128 128 0 0 1 92.032 216.96L534.656 630.72a32 32 0 0 1-45.312 0L331.008 472.256A128 128 0 0 1 512 291.2c23.04-22.336 54.4-36.032 88.96-36.032z m0 64a63.552 63.552 0 0 0-44.48 17.984l-44.16 42.752L512 379.648l-0.32 0.32-44.16-42.752A64 64 0 0 0 376.96 427.712l0.384 0.384L512 562.752l134.592-134.656 0.448-0.384A63.552 63.552 0 0 0 664.96 384v-0.64a64 64 0 0 0-64-64z" /></svg>