<?xml version="1.0" standalone="no"?><!DOCTYPE svg PUBLIC "-//W3C//DTD SVG 1.1//EN" "http://www.w3.org/Graphics/SVG/1.1/DTD/svg11.dtd"><svg class="icon" width="48px" height="48.00px" viewBox="0 0 1024 1024" version="1.1" xmlns="http://www.w3.org/2000/svg"><path d="M324.267 136.533a34.133 34.133 0 0 1 2.56 68.182l-2.56 0.085H204.8v682.667h614.4V204.8H708.267a34.133 34.133 0 0 1-2.56-68.181l2.56-0.086H819.2a68.267 68.267 0 0 1 68.181 64.854l0.086 3.413v682.667a68.267 68.267 0 0 1-64.854 68.181l-3.413 0.085H204.8a68.267 68.267 0 0 1-68.181-64.853l-0.086-3.413V204.8a68.267 68.267 0 0 1 64.854-68.181l3.413-0.086h119.467zM631.467 68.267H392.533c-56.405 0-102.4 45.994-102.4 102.4s45.995 102.4 102.4 102.4h238.934c56.405 0 102.4-45.995 102.4-102.4s-45.995-102.4-102.4-102.4z m-238.934 68.266h238.934c18.688 0 34.133 15.446 34.133 34.134S650.155 204.8 631.467 204.8H392.533c-18.688 0-34.133-15.445-34.133-34.133s15.445-34.134 34.133-34.134zM496.794 358.4c104.704 0 189.576 84.873 189.576 189.577 0 40.02-12.407 77.14-33.57 107.741l71.066 71.066-48.265 48.282-71.066-71.083a188.706 188.706 0 0 1-107.741 33.57c-104.704 0-189.594-84.872-189.594-189.576S392.09 358.4 496.794 358.4z m0 68.267a121.31 121.31 0 1 0-0.017 242.636 121.31 121.31 0 0 0 0.017-242.636z" /></svg>