<?xml version="1.0" standalone="no"?><!DOCTYPE svg PUBLIC "-//W3C//DTD SVG 1.1//EN" "http://www.w3.org/Graphics/SVG/1.1/DTD/svg11.dtd"><svg t="1757325855234" class="icon" viewBox="0 0 1024 1024" version="1.1" xmlns="http://www.w3.org/2000/svg" p-id="1511" xmlns:xlink="http://www.w3.org/1999/xlink" width="200" height="200"><path d="M835.3055375 400.40074707h-93.64742402V287.52725586S762.26845713 62 512 62c0 0-227.01040928 0-227.01040928 226.85660068v111.54414639H188.68347617a47.06541123 47.06541123 0 0 0-47.24119248 46.59299912v468.52276641c0 25.56517588 21.28050967 46.48313584 47.24119248 46.48313584H835.3055375a47.06541123 47.06541123 0 0 0 47.24119248-46.52708115V446.93881455a47.06541123 47.06541123 0 0 0-47.24119248-46.52708116z m-465.4026501 1e-8V288.84561435S368.10113047 146.42989824 516.44946113 146.42989824c0 0 139.86688886-4.39452949 139.86688887 140.62494551v113.34590332z m0 0" p-id="1512"></path></svg>