<?xml version="1.0" standalone="no"?>
<!DOCTYPE svg PUBLIC "-//W3C//DTD SVG 1.1//EN" "http://www.w3.org/Graphics/SVG/1.1/DTD/svg11.dtd">
<svg version="1.1" xmlns="http://www.w3.org/2000/svg"
 width="200" height="200" viewBox="0 0 200 200"
 preserveAspectRatio="xMidYMid meet">

<g transform="translate(-99,340) scale(0.030,-0.030)">
<path class="face" d="M5915 10659 c-224 -27 -615 -165 -609 -214 2 -14 79 -58 166 -95 132
-56 141 -64 91 -77 -56 -13 -212 -82 -282 -122 -129 -76 -287 -220 -371 -341
-14 -19 -28 -37 -31 -40 -3 -3 -14 -18 -23 -35 -10 -16 -28 -48 -41 -70 -90
-154 -169 -368 -195 -528 -6 -42 -5 -48 9 -43 21 7 149 41 184 50 39 9 35 -8
-19 -100 -170 -288 -266 -666 -251 -990 6 -123 28 -253 47 -284 7 -12 23 -2
75 50 36 35 65 70 65 77 0 7 6 13 13 13 6 0 32 18 55 40 24 22 48 40 53 40 5
0 9 -53 10 -117 0 -206 23 -403 65 -582 66 -283 196 -572 307 -683 9 -10 17
-22 17 -28 0 -5 7 -10 15 -10 8 0 15 3 15 8 0 4 7 66 15 137 17 154 37 255 50
258 9 2 68 -85 249 -365 191 -298 697 -1068 750 -1143 88 -124 158 -166 273
-166 161 -1 218 40 367 264 41 62 96 144 124 183 27 38 51 74 53 80 2 5 48 77
103 159 54 83 122 186 151 230 28 44 69 106 91 139 21 32 42 65 47 72 4 8 10
20 15 28 4 7 40 62 80 120 39 59 72 111 72 116 0 5 6 15 13 22 8 7 27 34 42
58 71 112 136 210 141 210 11 0 23 -54 43 -190 11 -80 22 -161 23 -180 4 -52
26 -44 78 26 56 76 72 104 130 229 131 280 196 575 207 928 3 108 10 197 15
197 9 0 153 -132 216 -199 19 -20 36 -30 41 -25 38 41 62 343 42 528 -31 278
-126 573 -244 758 -50 77 -49 92 4 84 23 -4 66 -15 97 -26 81 -29 85 -28 77
22 -12 66 -70 258 -106 344 -159 384 -442 664 -787 779 -35 11 -64 25 -64 30
-1 10 4 13 162 91 130 64 132 66 77 98 -73 43 -215 101 -317 129 -167 47 -254
59 -430 60 -138 1 -179 -3 -252 -21 -102 -25 -193 -68 -247 -117 -21 -19 -43
-35 -48 -35 -5 0 -20 11 -34 26 -40 42 -160 102 -250 124 -100 24 -314 34
-434 19z m-189 -830 c70 -36 74 -49 29 -95 -77 -80 -275 -365 -275 -396 0 -40
-85 46 -133 135 -25 47 -28 59 -23 120 8 111 74 205 176 251 52 23 166 16 226
-15z m2036 15 c68 -23 142 -104 164 -179 33 -116 0 -223 -94 -306 -33 -29 -37
-30 -47 -14 -99 166 -196 304 -273 387 -41 44 -47 68 -18 68 6 0 18 6 24 13
21 20 104 45 153 46 25 1 66 -6 91 -15z m-1430 -123 c78 -39 143 -78 188 -112
65 -50 97 -61 135 -49 18 6 51 23 72 38 87 61 192 120 254 143 68 26 181 25
253 -2 67 -25 178 -124 262 -236 33 -43 62 -79 67 -81 4 -2 7 -8 7 -14 0 -5
11 -24 24 -41 34 -46 127 -213 154 -277 17 -40 25 -83 29 -155 5 -91 3 -111
-26 -218 -17 -65 -52 -164 -77 -221 -46 -106 -121 -237 -139 -243 -5 -1 -23
25 -39 60 -31 66 -94 165 -119 186 -13 10 -18 8 -33 -15 -27 -41 -22 -114 16
-224 69 -201 52 -320 -73 -508 -32 -49 -57 -53 -127 -21 -69 32 -275 113 -367
144 -78 27 -83 30 -89 62 -3 18 -4 67 -2 109 3 75 4 78 43 111 22 20 58 47 80
60 77 49 137 98 151 125 22 43 18 85 -11 104 -28 18 -122 16 -264 -6 -60 -9
-92 -9 -173 4 -142 23 -206 21 -235 -6 -29 -27 -29 -53 -2 -98 25 -41 24 -40
154 -127 55 -37 103 -72 108 -78 4 -5 6 -59 5 -120 l-3 -109 -140 -53 c-77
-30 -159 -60 -183 -69 -23 -8 -79 -30 -123 -49 -44 -19 -84 -35 -88 -35 -14 0
-88 113 -115 173 -33 75 -50 165 -43 225 3 27 22 98 41 158 37 113 44 172 26
218 -20 53 -60 19 -134 -116 -57 -103 -64 -113 -68 -108 -41 55 -131 223 -148
275 -7 22 -16 45 -21 51 -5 6 -25 72 -44 148 -62 244 -48 312 123 596 25 41
49 80 54 85 154 200 233 282 311 322 98 49 222 47 329 -6z m438 -1988 c80 -27
287 -108 385 -151 33 -14 61 -26 62 -26 1 -1 -5 -33 -12 -73 -44 -229 -168
-293 -572 -293 -198 0 -280 9 -377 41 -116 38 -186 133 -202 273 l-6 53 93 41
c133 58 332 131 414 152 80 20 110 18 215 -17z"/>
<path class="eye-left" d="M5920 9146 c0 -83 52 -143 175 -202 81 -40 155 -101 155 -130 0 -9 7
-14 18 -12 36 7 27 202 -11 260 -21 30 -35 37 -167 75 -80 23 -151 42 -157 42
-8 1 -13 -12 -13 -33z"/>
<path class="eye-right" d="M7309 9176 c-3 -3 -56 -19 -119 -36 -154 -41 -166 -47 -192 -88 -18
-30 -21 -50 -22 -142 -1 -60 2 -112 6 -116 9 -8 45 30 53 57 6 19 63 56 156
103 99 49 159 123 159 196 0 22 -5 30 -18 30 -10 0 -21 -2 -23 -4z"/>
<path class="ear-left" d="M3732 10088 c-84 -13 -158 -69 -203 -154 -29 -55 -30 -172 -2 -235
18 -41 310 -491 363 -561 11 -14 20 -31 20 -36 0 -6 4 -12 8 -14 7 -2 205
-292 247 -360 40 -65 99 -148 106 -148 4 0 9 -8 12 -17 7 -32 16 68 27 287 11
240 27 365 67 520 46 184 149 416 247 555 23 33 59 84 79 113 l37 52 -227 1
c-126 1 -340 2 -478 3 -137 1 -274 -2 -303 -6z"/>
<path class="ear-right" d="M8703 10092 c-95 -1 -173 -5 -173 -8 0 -3 31 -49 70 -102 137 -191
233 -403 294 -652 35 -142 43 -211 55 -445 14 -266 21 -336 33 -329 5 3 7 12
4 20 -3 8 -1 13 5 11 13 -3 15 -1 200 278 84 127 231 347 327 490 231 346 237
357 237 466 0 84 -1 88 -39 143 -83 120 -97 124 -516 128 -179 2 -403 2 -497
0z"/>
</g>
</svg>