<?xml version="1.0" standalone="no"?><!DOCTYPE svg PUBLIC "-//W3C//DTD SVG 1.1//EN" "http://www.w3.org/Graphics/SVG/1.1/DTD/svg11.dtd"><svg class="icon" width="48px" height="48.00px" viewBox="0 0 1024 1024" version="1.1" xmlns="http://www.w3.org/2000/svg"><path d="M800 64a64 64 0 0 1 64 64v768a64 64 0 0 1-64 64h-576a64 64 0 0 1-64-64V128a64 64 0 0 1 64-64h576z m0 64h-576v768h576V128zM512 640a96 96 0 1 1 0 192 96 96 0 0 1 0-192z m0 64a32 32 0 1 0 0 64 32 32 0 0 0 0-64z m128-512a64 64 0 0 1 64 64v256a64 64 0 0 1-56.512 63.552L640 576H384a64 64 0 0 1-64-64V256a64 64 0 0 1 64-64h256z m0 64H384v256h256V256zM568 416c4.416 0 8 3.584 8 8v48a8 8 0 0 1-8 8h-112A8 8 0 0 1 448 472v-48c0-4.416 3.584-8 8-8h112z m0-128c4.416 0 8 3.584 8 8v48a8 8 0 0 1-8 8h-112A8 8 0 0 1 448 344v-48c0-4.416 3.584-8 8-8h112z" /></svg>