<?xml version="1.0" standalone="no"?><!DOCTYPE svg PUBLIC "-//W3C//DTD SVG 1.1//EN" "http://www.w3.org/Graphics/SVG/1.1/DTD/svg11.dtd"><svg class="icon" width="48px" height="48.00px" viewBox="0 0 1024 1024" version="1.1" xmlns="http://www.w3.org/2000/svg"><path d="M824 832c4.416 0 8 3.584 8 8v48a8 8 0 0 1-8 8h-624A8 8 0 0 1 192 888v-48c0-4.416 3.584-8 8-8h624zM896 128a64 64 0 0 1 64 64v512a64 64 0 0 1-64 64H128a64 64 0 0 1-64-64V192a64 64 0 0 1 64-64h768z m0 64H128v512h768V192z m-179.008 40.96a96 96 0 1 1-33.92 185.856L530.816 580.48a8 8 0 0 1-11.648 0L429.12 485.12a8 8 0 0 0-11.84 0.192l-155.264 178.624a8 8 0 0 1-11.072 0.96l-0.256-0.128-36.224-31.488a8 8 0 0 1-0.768-11.328l201.6-231.936a8 8 0 0 1 11.84-0.256l92.032 97.408a8 8 0 0 0 11.584 0l103.36-109.76a96 96 0 0 1 82.88-144.448z m0 64a32 32 0 1 0 0 64 32 32 0 0 0 0-64z" /></svg>