<?xml version="1.0" standalone="no"?><!DOCTYPE svg PUBLIC "-//W3C//DTD SVG 1.1//EN" "http://www.w3.org/Graphics/SVG/1.1/DTD/svg11.dtd"><svg class="icon" width="48px" height="48.00px" viewBox="0 0 1024 1024" version="1.1" xmlns="http://www.w3.org/2000/svg"><path d="M848.832 111.168H175.168A47.168 47.168 0 0 0 128 158.336v707.328c0 26.048 21.12 47.168 47.168 47.168h673.664c26.048 0 47.168-21.12 47.168-47.168V158.336a47.168 47.168 0 0 0-47.168-47.168z m-13.44 741.056H188.608V171.776h646.784v680.448zM319.488 228.032h385.024a9.6 9.6 0 0 1 9.6 9.6v44.8a9.6 9.6 0 0 1-9.6 9.6H319.488a9.6 9.6 0 0 1-9.6-9.6v-44.8a9.6 9.6 0 0 1 9.6-9.6z m336.64 246.912h-84.48l33.664-87.232a24.256 24.256 0 0 0-22.208-33.664H463.808a23.936 23.936 0 0 0-21.888 14.08L345.6 585.472a23.936 23.936 0 0 0 21.888 33.728h92.992l-20.544 165.76a23.936 23.936 0 0 0 43.776 16.128l192.32-288.64a23.936 23.936 0 0 0-19.84-37.44z m-155.264 200.064L512 592.832a21.568 21.568 0 0 0-21.568-24.256H414.976l67.392-151.232h63.36L512 495.808a21.568 21.568 0 0 0 20.224 29.696h67.328l-98.688 149.504z" /></svg>