<?xml version="1.0" standalone="no"?><!DOCTYPE svg PUBLIC "-//W3C//DTD SVG 1.1//EN" "http://www.w3.org/Graphics/SVG/1.1/DTD/svg11.dtd"><svg class="icon" width="48px" height="48.00px" viewBox="0 0 1024 1024" version="1.1" xmlns="http://www.w3.org/2000/svg"><path d="M134.200889 889.856m42.951111 0l669.752889 0q42.951111 0 42.951111 42.951111l0-0.056889q0 42.951111-42.951111 42.951111l-669.752889 0q-42.951111 0-42.951111-42.951111l0 0.056889q0-42.951111 42.951111-42.951111ZM881.208889 743.822222H142.791111V142.791111h492.430222a42.951111 42.951111 0 0 0 0-85.845333H129.251556C88.234667 56.888889 56.888889 91.704889 56.888889 132.551111v621.511111c0 40.846222 31.288889 75.662222 72.362667 75.662222h765.496888c41.016889 0 72.362667-34.816 72.362667-75.662222V428.259556a42.951111 42.951111 0 1 0-85.902222 0v315.619555zM910.620444 188.416a28.444444 28.444444 0 0 0-34.702222-36.295111l-161.223111 45.340444a28.444444 28.444444 0 0 0-13.084444 46.762667l108.032 115.939556a28.444444 28.444444 0 0 0 47.786666-10.524445l53.191111-161.223111zM458.524444 285.013333L186.311111 563.2a42.951111 42.951111 0 1 0 61.383111 60.074667l211.740445-216.462223 120.206222 119.296 210.830222-200.362666a42.951111 42.951111 0 0 0-59.164444-62.236445l-150.357334 142.904889L458.524444 284.956444z" /></svg>