<?xml version="1.0" standalone="no"?><!DOCTYPE svg PUBLIC "-//W3C//DTD SVG 1.1//EN" "http://www.w3.org/Graphics/SVG/1.1/DTD/svg11.dtd"><svg class="icon" width="48px" height="48.00px" viewBox="0 0 1024 1024" version="1.1" xmlns="http://www.w3.org/2000/svg"><path d="M448 128a32 32 0 0 1 32 32V448a32 32 0 0 1-32 32H160A32 32 0 0 1 128 448V160a32 32 0 0 1 32-32H448z m-32 64H192v224h224V192z m448-64a32 32 0 0 1 32 32V448a32 32 0 0 1-32 32H576a32 32 0 0 1-32-32V160A32 32 0 0 1 576 128h288zM832 192H608v224H832V192zM448 544a32 32 0 0 1 32 32v288a32 32 0 0 1-32 32H160a32 32 0 0 1-32-32V576a32 32 0 0 1 32-32H448z m-32 64H192V832h224V608z m448-64a32 32 0 0 1 32 32v288a32 32 0 0 1-32 32H576a32 32 0 0 1-32-32V576a32 32 0 0 1 32-32h288z m-32 64H608V832H832V608z" /></svg>