<?xml version="1.0" standalone="no"?><!DOCTYPE svg PUBLIC "-//W3C//DTD SVG 1.1//EN" "http://www.w3.org/Graphics/SVG/1.1/DTD/svg11.dtd"><svg class="icon" width="48px" height="48.00px" viewBox="0 0 1024 1024" version="1.1" xmlns="http://www.w3.org/2000/svg"><path d="M802.816 887.978667H164.295111a20.081778 20.081778 0 0 1-20.309333-19.797334V155.818667c0-11.093333 9.272889-19.797333 20.309333-19.797334h638.520889c11.036444 0 20.309333 8.704 20.309333 19.797334v279.893333c0 21.845333 19.512889 39.537778 43.576889 39.537778 24.007111 0 43.52-17.692444 43.52-39.537778v-279.893333C910.222222 101.376 862.378667 56.888889 802.816 56.888889H164.295111C104.675556 56.888889 56.888889 101.376 56.888889 155.875556v712.248888c0 54.499556 47.843556 98.986667 107.406222 98.986667h638.520889c24.064 0 43.576889-17.692444 43.576889-39.594667 0-21.845333-19.512889-39.537778-43.576889-39.537777zM238.933333 240.241778m43.349334 0l294.741333 0q43.349333 0 43.349333 43.349333l0 0q0 43.349333-43.349333 43.349333l-294.741333 0q-43.349333 0-43.349334-43.349333l0 0q0-43.349333 43.349334-43.349333ZM238.933333 415.288889m43.349334 0l294.741333 0q43.349333 0 43.349333 43.349333l0 0q0 43.349333-43.349333 43.349334l-294.741333 0q-43.349333 0-43.349334-43.349334l0 0q0-43.349333 43.349334-43.349333ZM740.124444 544.028444v-4.835555c0-21.048889 16.952889-38.115556 37.831112-38.115556 20.878222 0 37.831111 17.066667 37.831111 38.115556v4.835555c13.880889 3.584 27.022222 9.102222 39.082666 16.327112l3.413334-3.413334a37.603556 37.603556 0 0 1 53.475555 0c14.791111 14.904889 14.791111 39.025778 0 53.930667l-3.413333 3.413333c7.111111 12.117333 12.629333 25.372444 16.156444 39.367111h4.778667c20.878222 0 37.831111 17.066667 37.831111 38.115556 0 21.048889-16.952889 38.115556-37.831111 38.115555h-4.778667c-3.527111 14.051556-9.102222 27.306667-16.156444 39.424l3.413333 3.413334c14.791111 14.904889 14.734222 39.082667 0 53.930666a37.603556 37.603556 0 0 1-53.532444 0l-3.413334-3.413333a150.016 150.016 0 0 1-39.025777 16.327111v4.778667c0 21.048889-16.896 38.115556-37.831111 38.115555a38.001778 38.001778 0 0 1-37.831112-38.115555v-4.778667a149.902222 149.902222 0 0 1-39.025777-16.327111l-3.413334 3.413333a37.603556 37.603556 0 0 1-53.020444-0.455111 38.343111 38.343111 0 0 1-0.455111-53.475555l3.413333-3.413334a152.462222 152.462222 0 0 1-16.213333-39.367111h-4.721778a38.001778 38.001778 0 0 1-37.831111-38.115555c0-21.105778 16.896-38.172444 37.831111-38.172445h4.721778c3.584-13.994667 9.102222-27.249778 16.213333-39.367111l-3.413333-3.413333a38.4 38.4 0 0 1 0-53.987556 37.603556 37.603556 0 0 1 53.532444 0l3.413334 3.413334c12.117333-7.224889 25.258667-12.743111 38.968888-16.270223z m37.831112 224.028445c27.022222 0 51.996444-14.506667 65.536-38.115556a76.856889 76.856889 0 0 0 0-76.288 75.548444 75.548444 0 0 0-65.536-38.115555c-41.756444 0-75.662222 34.133333-75.662223 76.231111 0 42.097778 33.905778 76.288 75.662223 76.288z" /></svg>