<?xml version="1.0" standalone="no"?><!DOCTYPE svg PUBLIC "-//W3C//DTD SVG 1.1//EN" "http://www.w3.org/Graphics/SVG/1.1/DTD/svg11.dtd"><svg t="1757387897370" class="icon" viewBox="0 0 1024 1024" version="1.1" xmlns="http://www.w3.org/2000/svg" p-id="1179" xmlns:xlink="http://www.w3.org/1999/xlink" width="200" height="200"><path d="M918.44763357 869.14732108L819.36727655 769.94642893c63.703125-73.10491095 96.72991095-167.54464297 96.72991095-266.62500001A411.87053595 411.87053595 0 0 0 503.20209844 90.546875a411.87053595 411.87053595 0 0 0-412.95535702 412.83482107c0 228.89732108 186.40848203 412.95535703 412.95535703 412.95535785 99.08035702 0 191.04910703-35.4375 266.625-96.79017892l101.4308031 101.49107107a35.49776798 35.49776798 0 0 0 25.91517892 9.40178595c9.46205393 0 18.92410703-2.35044608 25.97544609-9.40178595 9.46205393-16.51339298 9.46205393-37.78794608-4.70089299-51.890625zM161.06147344 503.38169607a342.32142893 342.32142893 0 0 1 342.14062501-342.08035702 342.32142893 342.32142893 0 0 1 342.08035703 342.08035703 343.52678595 343.52678595 0 0 1-96.72991095 238.29910784c-2.35044608 0-2.35044608 2.41071406-4.70089298 2.41071405 0 0-2.41071406 2.35044608-2.41071405 4.70089298a343.52678595 343.52678595 0 0 1-238.23883905 96.72991012 342.32142893 342.32142893 0 0 1-342.140625-342.140625z" fill="#515151" p-id="1180"></path></svg>