<?xml version="1.0" standalone="no"?><!DOCTYPE svg PUBLIC "-//W3C//DTD SVG 1.1//EN" "http://www.w3.org/Graphics/SVG/1.1/DTD/svg11.dtd"><svg class="icon" width="48px" height="48.00px" viewBox="0 0 1024 1024" version="1.1" xmlns="http://www.w3.org/2000/svg"><path d="M519.808 120.768l367.04 183.488a16.512 16.512 0 0 1-0.192 29.632L716.8 415.808l170.048 84.992a16.512 16.512 0 0 1-0.192 29.632l-169.28 81.6 169.472 84.736a16.512 16.512 0 0 1-0.192 29.632l-367.168 176.96a16.512 16.512 0 0 1-14.464 0l-367.808-180.48a16.512 16.512 0 0 1 0-29.632l169.728-83.072-169.728-83.2a16.512 16.512 0 0 1 0-29.696l170.368-83.328-170.368-83.584a16.512 16.512 0 0 1-7.36-7.168l-0.192-0.384a16.512 16.512 0 0 1 7.616-22.08l367.936-180.032a16.512 16.512 0 0 1 14.592 0z m-137.92 527.232l-124.864 60.992 255.36 124.992 254.592-122.432-124.864-62.272-122.752 59.008a16.512 16.512 0 0 1-14.4 0l-123.072-60.288z m0.64-196.992l-125.504 61.504 255.36 125.44 254.592-122.88-125.44-62.784-122.176 58.88a16.448 16.448 0 0 1-14.08 0.192l-0.32-0.192-122.496-60.16z m129.6-260.032l-255.104 124.8 255.36 125.248 254.592-122.624-254.848-127.36z" /></svg>