<?xml version="1.0" standalone="no"?><!DOCTYPE svg PUBLIC "-//W3C//DTD SVG 1.1//EN" "http://www.w3.org/Graphics/SVG/1.1/DTD/svg11.dtd"><svg class="icon" width="48px" height="48.00px" viewBox="0 0 1024 1024" version="1.1" xmlns="http://www.w3.org/2000/svg"><path d="M770.446222 309.248a252.359111 252.359111 0 1 1-504.718222 0 252.359111 252.359111 0 0 1 504.718222 0z m-417.678222 0a165.319111 165.319111 0 1 0 330.638222 0 165.319111 165.319111 0 0 0-330.638222 0zM518.087111 474.567111A461.198222 461.198222 0 0 0 56.888889 935.765333a43.52 43.52 0 1 0 87.04 0 374.158222 374.158222 0 0 1 374.158222-374.158222 43.52 43.52 0 0 0 0-87.04zM718.563556 599.438222v-5.176889a41.415111 41.415111 0 0 1 82.830222 0v5.176889c15.246222 3.925333 29.582222 9.955556 42.780444 17.749334l3.697778-3.754667a41.472 41.472 0 0 1 58.595556 58.595555l-3.754667 3.640889c7.793778 13.141333 13.880889 27.534222 17.749333 42.666667h5.233778a41.415111 41.415111 0 1 1 0 82.773333h-5.233778a163.84 163.84 0 0 1-17.749333 42.666667l3.754667 3.754667a41.358222 41.358222 0 1 1-58.595556 58.481777l-3.697778-3.697777a165.148444 165.148444 0 0 1-42.780444 17.692444v5.233778a41.415111 41.415111 0 0 1-82.830222 0v-5.233778a165.148444 165.148444 0 0 1-42.723556-17.692444l-3.754667 3.697777a41.472 41.472 0 0 1-58.595555-58.481777l3.754666-3.754667a164.750222 164.750222 0 0 1-17.692444-42.666667h-5.233778a41.415111 41.415111 0 1 1 0-82.716444h5.233778c3.868444-15.189333 9.898667-29.582222 17.692444-42.666667l-3.697777-3.754666a41.358222 41.358222 0 1 1 58.595555-58.538667l3.697778 3.754667c13.312-7.907556 27.704889-13.880889 42.723556-17.749334z m41.415111 243.029334a82.887111 82.887111 0 0 0 71.793777-124.074667 82.887111 82.887111 0 0 0-154.624 41.358222c0 45.681778 37.091556 82.716444 82.830223 82.716445z" /></svg>