<?xml version="1.0" standalone="no"?><!DOCTYPE svg PUBLIC "-//W3C//DTD SVG 1.1//EN" "http://www.w3.org/Graphics/SVG/1.1/DTD/svg11.dtd"><svg class="icon" width="48px" height="48.00px" viewBox="0 0 1024 1024" version="1.1" xmlns="http://www.w3.org/2000/svg"><path d="M344.704 576c4.48 0 8 3.584 8 8v48a8 8 0 0 1-8 8H224a32 32 0 0 0-0.512 64H800a96 96 0 0 1 0 192H232a8 8 0 0 1-8-8v-48c0-4.416 3.584-8 8-8H800a32 32 0 1 0 0-64h-576a96 96 0 0 1 0-192h120.704zM512 128a224 224 0 0 1 224 224c0 82.56-68.352 181.376-202.688 301.248l-0.384 0.32a32 32 0 0 1-42.24-0.32C356.352 533.376 288 434.56 288 352A224 224 0 0 1 512 128z m0 64a160 160 0 0 0-160 160c0 54.656 51.584 132.992 156.672 231.04L512 586.112l3.328-3.072c103.936-97.024 155.52-174.72 156.672-229.248V352A160 160 0 0 0 512 192z m0 70.016a96 96 0 1 1 0 192 96 96 0 0 1 0-192z m0 64a32 32 0 1 0 0 64 32 32 0 0 0 0-64z" /></svg>