<?xml version="1.0" standalone="no"?><!DOCTYPE svg PUBLIC "-//W3C//DTD SVG 1.1//EN" "http://www.w3.org/Graphics/SVG/1.1/DTD/svg11.dtd"><svg class="icon" width="48px" height="48.00px" viewBox="0 0 1024 1024" version="1.1" xmlns="http://www.w3.org/2000/svg"><path d="M891.278222 700.700444l-0.113778 123.562667-758.442666 0.227556v-123.790223c86.471111-18.488889 151.665778-99.100444 151.665778-195.299555C284.273778 410.737778 220.956444 329.102222 132.721778 310.044444l0.113778-123.619555 758.442666-0.284445V310.044444c-88.234667 19.057778-151.608889 100.636444-151.722666 195.299556 0.113778 94.663111 63.488 176.241778 151.722666 195.356444z m37.888-314.936888H967.111111V186.140444c-0.170667-43.918222-34.133333-79.473778-75.946667-79.416888H132.835556C90.908444 106.609778 56.888889 142.165333 56.718222 186.140444v199.623112h37.944889c62.805333 0 113.777778 53.589333 113.777778 119.580444s-50.972444 119.580444-113.777778 119.580444H56.888889v199.566223c0.113778 43.975111 34.133333 79.530667 75.946667 79.473777h758.328888c41.870222 0.113778 75.889778-35.498667 76.003556-79.473777v-199.566223h-37.944889c-62.691556 0-113.777778-53.646222-113.777778-119.580444 0-65.991111 51.086222-119.580444 113.777778-119.580444zM625.777778 521.272889c14.677333 0 26.510222-12.515556 26.510222-27.875556 0-15.416889-11.832889-27.875556-26.510222-27.875555H549.432889c0.113778-0.170667 0.227556-0.170667 0.284444-0.227556l75.832889-79.758222a28.899556 28.899556 0 0 0 6.883556-26.908444 27.306667 27.306667 0 0 0-18.773334-19.740445 25.656889 25.656889 0 0 0-25.6 7.224889L512.113778 425.813333 512 426.097778l-0.227556-0.341334-75.832888-79.644444a25.656889 25.656889 0 0 0-37.546667 0 28.956444 28.956444 0 0 0 0 39.424L474.225778 465.351111c0.113778 0.056889 0.227556 0.056889 0.284444 0.170667H398.222222a27.306667 27.306667 0 0 0-26.567111 27.875555c0 15.473778 11.889778 27.932444 26.567111 27.932445h87.210667v63.829333H398.222222a26.339556 26.339556 0 0 0-23.04 13.937778 29.184 29.184 0 0 0 0 27.875555 26.339556 26.339556 0 0 0 23.04 13.994667h87.210667v23.893333c0 15.36 11.889778 27.875556 26.567111 27.875556 14.620444 0 26.510222-12.515556 26.510222-27.875556v-23.893333H625.777778c9.443556 0 18.204444-5.347556 22.983111-13.994667a29.127111 29.127111 0 0 0 0-27.875555 26.339556 26.339556 0 0 0-22.983111-13.937778H538.510222V521.272889H625.777778z" /></svg>